<svg width="251" height="258" viewBox="0 0 251 258" fill="none" xmlns="http://www.w3.org/2000/svg">
<circle cx="125.5" cy="132.5" r="125.5" fill="#D9D9D9"/>
<path d="M127.612 47.5849L155.244 79.6576C161.044 86.3903 163.774 93.4485 163.432 100.832C163.091 108.216 158.351 115.844 149.214 123.716C142.814 129.229 136.949 132.671 131.62 134.04C126.29 135.409 121.361 135.112 116.833 133.148C112.342 131.152 108.137 127.879 104.217 123.329L86.3853 102.631L57.0315 127.92L47.3748 116.712L127.612 47.5849ZM112.898 116.236C115.702 119.492 118.551 121.227 121.443 121.442C124.372 121.626 127.302 120.874 130.232 119.188C133.193 117.538 136.043 115.535 138.78 113.176C141.407 110.913 143.895 108.415 146.245 105.682C148.595 102.948 150.023 100.043 150.529 96.9642C151.104 93.8909 149.941 90.6711 147.041 87.3048L128.779 66.1079L94.8752 95.3171L112.898 116.236Z" fill="#343434"/>
<path d="M127.612 47.5849L155.244 79.6576C161.044 86.3903 163.774 93.4485 163.432 100.832C163.091 108.216 158.351 115.844 149.214 123.716C142.814 129.229 136.949 132.671 131.62 134.04C126.29 135.409 121.361 135.112 116.833 133.148C112.342 131.152 108.137 127.879 104.217 123.329L86.3853 102.631L57.0315 127.92L47.3748 116.712L127.612 47.5849ZM112.898 116.236C115.702 119.492 118.551 121.227 121.443 121.442C124.372 121.626 127.302 120.874 130.232 119.188C133.193 117.538 136.043 115.535 138.78 113.176C141.407 110.913 143.895 108.415 146.245 105.682C148.595 102.948 150.023 100.043 150.529 96.9642C151.104 93.8909 149.941 90.6711 147.041 87.3048L128.779 66.1079L94.8752 95.3171L112.898 116.236Z" fill="#343434"/>
<path d="M76.3545 207V101.092H89.9043L125.939 159.686L161.608 101.092H174.646V207H160.729V124.896L131.066 173.455H120.153L90.417 125.042V207H76.3545Z" fill="#343434"/>
<path d="M76.3545 207V101.092H89.9043L125.939 159.686L161.608 101.092H174.646V207H160.729V124.896L131.066 173.455H120.153L90.417 125.042V207H76.3545Z" fill="#343434"/>
</svg>
